<svg aria-hidden="true" style="position: absolute; width: 0; height: 0; overflow: hidden;" version="1.1" xmlns="http://www.w3.org/2000/svg" xmlns:xlink="http://www.w3.org/1999/xlink">
<defs>
<symbol id="icon-export" viewBox="0 0 27 32">
<path fill="#c0c0c0" style="fill: var(--color1, #c0c0c0)" d="M13.333 1.333l-12.444 12.444h7.111v10.667h10.667v-10.667h7.111l-12.444-12.444zM15.111 10.222v10.667h-3.556v-10.667h-2.080l3.858-3.858 3.858 3.858h-2.080zM0.889 28h24.889v3.555h-24.889v-3.555z"></path>
</symbol>
<symbol id="icon-info" viewBox="0 0 32 32">
<path fill="#c0c0c0" style="fill: var(--color1, #c0c0c0)" d="M14.476 23.619h3.048v-9.143h-3.048v9.143zM16 0.762c-8.411 0-15.238 6.827-15.238 15.238s6.827 15.238 15.238 15.238c8.411 0 15.238-6.827 15.238-15.238s-6.827-15.238-15.238-15.238zM16 28.191c-6.72 0-12.19-5.471-12.19-12.191s5.47-12.19 12.19-12.19c6.72 0 12.191 5.47 12.191 12.19s-5.471 12.191-12.191 12.191zM14.476 11.429h3.048v-3.048h-3.048v3.048z"></path>
</symbol>
<symbol id="icon-search" viewBox="0 0 32 32">
<path fill="#c0c0c0" style="fill: var(--color1, #c0c0c0)" d="M22.222 19.556h-1.404l-0.498-0.48c1.742-2.027 2.791-4.658 2.791-7.52 0-6.382-5.173-11.556-11.556-11.556s-11.556 5.173-11.556 11.556c0 6.382 5.173 11.556 11.556 11.556 2.862 0 5.493-1.049 7.52-2.791l0.48 0.498v1.404l8.889 8.871 2.649-2.649-8.871-8.889zM11.556 19.556c-4.427 0-8-3.573-8-8s3.573-8 8-8c4.427 0 8 3.573 8 8s-3.573 8-8 8z"></path>
</symbol>
<symbol id="icon-arrow" viewBox="0 0 64 32">
<path  d="M0 0l32 32 32-32h-64z"></path>
</symbol>
<symbol id="icon-close" viewBox="0 0 32 32">
<path d="M26.667 7.303l-1.97-1.97-7.808 7.808-7.808-7.808-1.97 1.97 7.808 7.808-7.808 7.808 1.97 1.97 7.808-7.808 7.808 7.808 1.97-1.97-7.808-7.808 7.808-7.808z"></path>
</symbol>
<symbol id="icon-frame" viewBox="0 0 21 32">
<path fill="#c0c0c0" style="fill: var(--color1, #c0c0c0)" d="M10.667 5.031l5.636 5.636 2.507-2.507-8.142-8.16-8.16 8.16 2.524 2.507 5.636-5.636zM10.667 26.969l-5.636-5.635-2.507 2.507 8.142 8.16 8.16-8.16-2.524-2.507-5.636 5.635z"></path>
</symbol>
<symbol id="icon-right" viewBox="0 0 20 32">
<path fill="#5b5b5b" style="fill: var(--color2, #5b5b5b)" d="M0.726 28.044l2.622 2.622 14.667-14.667-14.667-14.667-2.622 2.622 12.044 12.044-12.044 12.044z"></path>
</symbol>
<symbol id="icon-left" viewBox="0 0 20 32">
<path fill="#5b5b5b" style="fill: var(--color2, #5b5b5b)" d="M18.83 3.956l-2.637-2.622-14.652 14.667 14.667 14.667 2.622-2.622-12.044-12.044 12.044-12.044z"></path>
</symbol>
<symbol id="icon-update" viewBox="0 0 47 32">
<path fill="#c0c0c0" style="fill: var(--color1, #c0c0c0)" d="M36.849 8.242l-7.757 7.758h5.818c0 6.419-5.217 11.636-11.636 11.636-1.959 0-3.821-0.485-5.43-1.358l-2.832 2.831c2.385 1.513 5.217 2.405 8.262 2.405 8.572 0 15.515-6.943 15.515-15.515h5.818l-7.758-7.758zM11.637 16c0-6.419 5.217-11.636 11.636-11.636 1.959 0 3.821 0.485 5.43 1.358l2.832-2.832c-2.385-1.513-5.217-2.405-8.262-2.405-8.572 0-15.515 6.943-15.515 15.515h-5.818l7.758 7.758 7.758-7.758h-5.818z"></path>
</symbol>
<symbol id="icon-calendar" viewBox="0 0 27 32">
<path fill="#c0c0c0" style="fill: var(--color1, #c0c0c0)" d="M9.143 14.095h-3.048v3.048h3.048v-3.048zM15.238 14.095h-3.048v3.048h3.048v-3.048zM21.333 14.095h-3.048v3.048h3.048v-3.048zM24.381 3.428h-1.524v-3.048h-3.048v3.048h-12.191v-3.048h-3.048v3.048h-1.524c-0.808 0-1.583 0.321-2.155 0.893s-0.893 1.347-0.893 2.155v21.333c0 0.808 0.321 1.584 0.893 2.155s1.347 0.893 2.155 0.893h21.333c0.808 0 1.583-0.321 2.155-0.893s0.893-1.347 0.893-2.155v-21.333c0-0.808-0.321-1.583-0.893-2.155s-1.347-0.893-2.155-0.893zM24.381 27.809h-21.333v-16.762h21.333v16.762z"></path>
</symbol>
</defs>
</svg>
